<?xml version="1.0" encoding="UTF-8"?>
<!-- Generator: Adobe Illustrator 23.0.2, SVG Export Plug-In . SVG Version: 6.00 Build 0)  -->
<svg version="1.1" xmlns="http://www.w3.org/2000/svg" xmlns:xlink="http://www.w3.org/1999/xlink" x="0px" y="0px" viewBox="0 0 440 184" style="enable-background:new 0 0 440 184;" xml:space="preserve">
<style type="text/css">
	.st0{fill:url(#SVGID_1_);}
	.st1{fill:url(#SVGID_2_);}
	.st2{fill:url(#SVGID_3_);}
	.st3{fill:#FFFFFF;}
	.st4{fill:#999999;}
	.st5{clip-path:url(#SVGID_5_);fill:#999999;}
	.st6{fill:#999999;stroke:#999999;stroke-width:2;stroke-linecap:round;stroke-linejoin:round;stroke-miterlimit:10;}
	.st7{fill:#78AD2B;}
	.st8{fill:#93BD56;}
	.st9{fill:#E4EFD5;}
</style>
<g id="Ebene_5">
	
		<radialGradient id="SVGID_1_" cx="236.9431" cy="-102.0156" r="28.3991" gradientTransform="matrix(1.1803 0 0 -0.1881 -13.1639 158.2692)" gradientUnits="userSpaceOnUse">
		<stop offset="0" style="stop-color:#999999"/>
		<stop offset="1" style="stop-color:#FFFFFF;stop-opacity:0"/>
	</radialGradient>
	<ellipse class="st0" cx="266.5" cy="177.5" rx="46.5" ry="6.5"/>
	
		<radialGradient id="SVGID_2_" cx="315.7366" cy="78.7393" r="28.3991" gradientTransform="matrix(1.1803 0 0 -0.1881 -13.1639 158.2692)" gradientUnits="userSpaceOnUse">
		<stop offset="0" style="stop-color:#999999"/>
		<stop offset="1" style="stop-color:#FFFFFF;stop-opacity:0"/>
	</radialGradient>
	<ellipse class="st1" cx="359.5" cy="143.5" rx="46.5" ry="6.5"/>
	
		<radialGradient id="SVGID_3_" cx="50.5498" cy="78.7393" r="28.3991" gradientTransform="matrix(3.084 0 0 -0.1893 -34.396 158.4064)" gradientUnits="userSpaceOnUse">
		<stop offset="0" style="stop-color:#999999"/>
		<stop offset="1" style="stop-color:#FFFFFF;stop-opacity:0"/>
	</radialGradient>
	<ellipse class="st2" cx="121.5" cy="143.5" rx="121.5" ry="6.5"/>
</g>
<g id="Ebene_3">
	<g>
		<g>
			
				<ellipse transform="matrix(8.754551e-03 -1 1 8.754551e-03 293.7224 439.3595)" class="st3" cx="368.5" cy="71.5" rx="69.5" ry="69.5"/>
		</g>
		<path class="st4" d="M368.5,2C406.8,2,438,33.2,438,71.5c0,38.4-31.1,69.5-69.5,69.5c-38.4,0-69.5-31.1-69.5-69.5    C299,33.2,330.1,2,368.5,2 M368.5,0c-19.1,0-37.1,7.4-50.6,20.9c-13.5,13.5-20.9,31.5-20.9,50.6c0,19.1,7.4,37.1,20.9,50.6    c13.5,13.5,31.5,20.9,50.6,20.9c19.1,0,37.1-7.4,50.6-20.9c13.5-13.5,21-31.5,21-50.6c0-19.1-7.4-37.1-21-50.6    C405.5,7.4,387.6,0,368.5,0L368.5,0z"/>
		<g>
			<defs>
				
					<ellipse id="SVGID_4_" transform="matrix(6.213804e-02 -0.9981 0.9981 6.213804e-02 273.4707 435.3157)" cx="368.4" cy="72.1" rx="71.2" ry="71.3"/>
			</defs>
			<clipPath id="SVGID_5_">
				<use xlink:href="#SVGID_4_" style="overflow:visible;"/>
			</clipPath>
			<path class="st5" d="M390.4,1.9l0.2,0c0.3,0.1,0.3,0.1,1.1,0.3l0.1,0c0.2,0,0.4,0.1,0.6,0.2l0,0l0.1,0l0,0     c-0.2-0.1-0.2-0.1-0.4-0.1c-0.2,0-0.3-0.1-0.5-0.1c-0.4-0.1-0.8-0.2-1.3-0.3l-1-0.2c0.2,0,0.3,0.1,0.5,0.1c0,0,0,0-0.4-0.1     c-0.3-0.1-0.3-0.1-0.4-0.1v0c0.2,0.1,0.3,0,0.5,0.1h0c0.1,0.1,0.3,0.1,0.4,0.1l0,0C390.1,1.8,390.3,1.8,390.4,1.9z"/>
			<path class="st5" d="M357.1,29.5c0.1-0.2,0.1-0.2,0.2-0.5c0.1-0.2,0.2-0.5,0.2-0.7c0-0.1,0.1-0.2,0.1-0.4c0.3,0,0.5-0.1,0.5-0.3     c0-0.1,0.1-0.3-0.1-0.5c-0.1-0.2,0.1-0.3,0-0.4c0,0,0-0.1-0.1-0.1c-0.1,0-0.1,0-0.2,0l-0.1-0.1l-0.1,0c-0.1,0-0.5,0.1-0.5,0.1     c-0.1,0-0.1,0.1-0.1,0.2c-0.1,0-0.1,0-0.2,0.1l-0.1-0.1c-0.1-0.1,0-0.2-0.1-0.2c-0.1,0-0.1,0-0.5,0c-0.1,0.3-0.3,0.6-0.3,0.9     c-0.1,0-0.2,0.1-0.4,0.1c-0.1,0-0.3,0.1-0.4,0.1c-0.1,0-0.1,0-0.2-0.1c-0.1,0-0.1,0-0.2,0c-0.1,0.4-0.3,0.9-0.4,1.3     c0.2,0,0.2,0,0.6,0c-0.1,0.2-0.1,0.4-0.2,0.6c-0.4,0-0.4,0-0.7,0.3l0,0c-0.1,0.1,0,0.3-0.1,0.4c-0.1,0.1-0.2,0-0.2,0.1l-0.1,0.1     c0,0.1-0.1,0.2,0,0.3c0.2,0.2,0.3,0.2,0.5,0.1c0.2-0.1,0.5,0,0.6,0.1c0.2,0,0.4-0.2,0.5-0.2c0,0,0,0,0.1-0.2     c0-0.1,0.2-0.1,0.2-0.2c0.5,0,1,0,1.5,0.1c0-0.1,0-0.2,0.1-0.3c0-0.1-0.1-0.3,0-0.4C356.9,29.5,357,29.5,357.1,29.5z"/>
			<path class="st5" d="M363.5,30.7c0.1,0,0.1,0,0.3-0.4c0.1,0,0.2,0,0.4,0c0-0.1,0-0.3,0-0.4c-0.3-0.2-0.2-0.4-0.2-0.5     c-0.1-0.1-0.2-0.2-0.3-0.3l-0.2,0c0,0.2,0,0.3-0.3,0.5c-0.2,0.1-0.2,0.1-0.2-1.1c-0.2,0-0.4,0-0.5,0c0.2-0.7,0.3-0.9-0.2-1     c0-0.1,0-0.1-0.1-0.2l-0.2-0.1c0.1-0.2,0-0.3-0.2-0.5l0-0.1c0.1-0.2-0.2-0.7-0.4-0.7c-0.6-0.1-0.6-0.1-0.7-0.3     c0.3-0.4,0.3-0.4,0.8-0.5c0-0.1,0-0.1,0.1-0.2c0-0.3,0.4-0.3,0.5-0.5c0.1-0.2,0.1-0.5,0.2-0.7c-0.5,0-1.1,0-1.6-0.1     c0.4-0.5,0.4-0.5,0.4-0.6c0.1-0.3,0.4-0.3,0.6-0.5c-0.1-0.1-0.1-0.1-0.2-0.2l-0.2,0c-0.1,0-0.2,0-0.3,0c-0.3,0.1-0.5-0.1-0.8,0     c-0.1,0.3-0.3,0.4-0.4,0.7c-0.1,0.2-0.1,0.4-0.2,0.6c-0.5,0-0.5,0-0.5,0c-0.1,0-0.1-0.2-0.2-0.2l-0.2,0c-0.3,0.1-0.3,0.6-0.3,0.6     c0,0.2,0.3,0.2,0.4,0.3l-0.1,0.1c0,0.1,0,0.1-0.1,0.2c-0.1,0.2,0,0.5-0.3,0.5c-0.5,0-0.5,0.2-0.5,0.4l0,0.1c0.1,0,0.2,0,0.4,0     c0.1-0.1,0.1-0.1,0.3,0c0,0.3,0,0.3,0.1,0.3c0.1,0,0.2,0,0.4,0c0-0.1,0-0.1,0.2-0.3l0.1,0.2c-0.1,0.2,0.1,0.4,0,0.6     c-0.1,0.2-0.4,0.1-0.5,0.3c0,0.1,0,0.1,0,0.3c0.3,0,0.6,0,0.9,0l0.1-0.2c0.5,0.3-0.2,0.9,0.4,1.2l0.1,0c-0.1,0.1-0.2,0.4-0.1,0.5     c0,0.2,0,0.3-0.2,0.4c-0.4,0.2-0.6-0.2-0.9-0.2l-0.1,0c-0.2,0-0.2,0-0.4,0.2l-0.1,0.2c-0.1,0-0.2,0-0.3,0l-0.1,0.2     c0.3,0.2,0.6,0.1,0.9,0.1c0,0.1,0,0.2-0.1,0.4c-0.1,0-0.1,0-0.2,0c-0.6,0.3-0.6,0.3-0.6,0.3l0,0h-0.1l0,0h0l0,0     c-0.1,0.3-0.1,0.4,0,0.6c0.3,0,0.6-0.3,0.9,0c0.3,0.2,0.6-0.1,0.9,0.1c0,0.2,0,0.3-0.1,0.3c-0.1,0-0.3,0.1-0.7,0.1     c-0.2,0-0.3,0.2-0.5,0.3c-0.2,0-0.4,0-0.5,0.1c-0.1,0.7-0.1,0.7-0.8,0.9c0.2,0.2,0.2,0.2,0.7,0c0.2-0.1,0.2-0.1,0.3-0.3     c0.1,0,0.1,0,0.4,0.1c0.2,0,0.4,0,0.6,0c0.1-0.4,0.1-0.4,0.2-0.5c0.4,0.1,0.8,0,1.1,0.1c0.3,0,0.3-0.4,0.6-0.3     c0.3,0,0.4,0.3,0.6,0.4l0.1,0c0.3-0.1,0.6,0.1,0.9-0.1c0.3-0.2,0.3-0.2,0.4-0.2c0.2,0,0.2,0,0.4-0.1l0.1-0.2     c-0.1-0.1-0.2-0.3-0.2-0.5c0,0,0-0.1,0-0.1C363.2,30.8,363.2,30.6,363.5,30.7z"/>
			<path class="st5" d="M396.3,9.7c0.3,0,0.6,0.2,1,0.2c0,0,0.1,0,0.2,0c0,0,0,0,0.1,0c-0.1-0.1-0.2-0.2-0.3-0.3c-0.1,0-0.1,0-1.6-1     c-0.3-0.2-0.5-0.3-0.8-0.5L394.8,8c0,0,0-0.1-0.3-0.3c-0.1-0.1-0.1-0.1-0.2-0.2l0,0c0-0.1-0.1-0.2-0.1-0.2l-0.1-0.1l0,0l0,0     L394.1,7l0,0c0-0.1,0-0.1-0.2-0.3c0-0.1-0.1-0.1-0.1-0.2l0.1,0c-0.1-0.3-0.4-0.4-0.6-0.6c0.2,0,0.2,0,0.2,0     c-0.1-0.1-0.1-0.1-0.1-0.1l0.1,0l0-0.1l-0.1-0.1l0.1,0c-0.1-0.2-0.4-0.3-0.5-0.5c0.1,0,0.2,0,0.3,0c0-0.1-0.2-0.1-0.2-0.2l0,0     V4.8h0.3c0-0.1-0.1-0.1-0.1-0.1l0.2,0l-0.1-0.1c0.1,0,0.2,0,0.3,0c-0.1-0.1-0.1-0.1-0.4-0.3v0l0.1,0c-0.1,0-0.1-0.1-0.2-0.1     c-0.3-0.2-0.3-0.2-0.9-0.3h0l-0.1,0c-0.1,0-0.1,0-0.1,0c0.1,0.2,0.3,0.2,0.4,0.3l0,0c-0.1,0-0.1,0-0.1,0c0,0,0.1,0.1,0.1,0.1     l-0.2,0l0,0l0,0.1l0,0.1c-0.1,0-0.3,0-0.4,0h-0.1l0,0l-0.1,0l0,0c0,0,0,0,0.3,0.3c-0.1,0-0.3,0-0.4,0c0,0.1,0,0.1,0.2,0.2l0,0     c0,0,0,0-0.1,0c0,0.1,0,0.1,0.5,0.4c-0.1,0-0.3-0.1-0.4,0c0.2,0.1,0.4,0.3,0.6,0.5l0.1,0.1c0.1,0.1,0.2,0.1,0.3,0.2     c-0.1,0-0.2,0-0.3,0c0,0-0.1,0.1,0,0.2c0,0,0.3,0.4,0.4,0.1c0.1,0,0.1,0,0.3,0.2l0.1,0.1l0.2,0.1c-0.1,0.1-0.3,0-0.4,0     c0.1,0.1,0.3,0.2,0.4,0.3c-0.2,0-0.3,0-0.3,0.1c0.1,0.2,0.3,0.2,0.4,0.3c0,0,0,0,0.2,0.3c-0.2,0-0.2,0-0.3,0c0,0,0,0,0.2,0.2     l0,0.1c0.2,0.2,0.4,0.4,0.6,0.6c0.1,0,0.2,0,0.3,0l-0.1-0.1c0,0,0.1-0.1,0.2,0c0.1,0.1,0.1,0.1,0.3,0.2c0-0.1,0-0.1-0.1-0.2     c0.6,0.2,0.7,0.3,0.9,0.4l0.1,0.3l0.1,0.1l0.2,0.1C396,9.7,396.2,9.7,396.3,9.7z"/>
			<path class="st5" d="M438.8,40.4c-1-2.1-1.4-2.9-2.5-4.6l0.1,0.2C437.2,37.4,438.1,39.1,438.8,40.4z"/>
			<path class="st5" d="M392.3,2.2c-0.4-0.1-0.8-0.2-1.2-0.3h0c0.4,0.1,0.9,0.2,1.3,0.4h0c2.4,0.8,2.4,0.8,2.5,0.8     c-0.3-0.1-0.6-0.1-0.8-0.3l0.1,0l0,0c-0.1,0-0.2-0.1-0.3-0.1l0,0l-0.2-0.1l0.1,0c-0.1,0-0.2-0.1-0.5-0.2c-0.1,0-0.2-0.1-0.3-0.1     c-0.1,0-0.2-0.1-0.3-0.1l0,0c-0.6-0.2-1-0.3-1.1-0.3C392,2.1,392.1,2.1,392.3,2.2L392.3,2.2z"/>
			<path class="st5" d="M439.7,97.9L439.7,97.9c0.2-0.3,0.3-0.6,0.4-0.9c0-0.1,0-0.1,0-0.2c0-0.1,0-0.1,0-0.2l0,0c0,0,0-0.1,0.1-0.7     c0.3-1,0.3-1,0.3-1.1c-0.5,1.1-0.6,2.3-0.6,2.3c0,0.1,0,0.1,0,0.3C439.8,97.6,439.7,97.8,439.7,97.9z"/>
			<path class="st5" d="M439.2,101.1L439.2,101.1c0,0.1-0.1,0.3-0.1,0.5l0.1,0c0,0.1,0,0.1-0.1,0.4c0,0.1,0,0.1,0,0.2l0,0     c0.1-0.1,0.1-0.2,0.2-0.2c0.1,0,0.1-0.1,0.1-0.1c0,0.1-0.1,0.3-0.2,0.4l0-0.1l0,0c0,0.2-0.1,0.3-0.2,0.5l0,0l0,0     c0.1-0.1,0.1-0.3,0.2-0.4l0.6-1.4c0,0,0.1-0.3,0.1-0.4c-0.1,0.1-0.4,0.2-0.5,0.3C439.3,100.9,439.2,101,439.2,101.1z"/>
			<path class="st5" d="M441.4,95.5c-0.1,0.1-0.1,0.1-0.3,0.6l-0.1,0c0.3-1,0.3-1,0.3-1.1l-0.1,0l0,0c0-0.2,0-0.4,0.1-0.7     c0.1-0.4,0.2-0.8,0.3-1.1l-0.1,0l-0.1,0c0.1-0.5,0.3-1,0.3-1.5l-0.1,0.1c0,0,0,0-0.1,0c0-0.1-0.1-0.1,0-0.4l0.1-0.2     c0,0-0.1-1.5,0-2c0,0-0.1-0.1,0-0.9c-0.1,0.1-0.1,0.3-0.3,0.2c0,0,0-0.3-0.1-0.7c-0.1,0.1-0.1,0.2-0.2,0.6c0,0.6,0,0.6,0.1,1.4     c0.1,0.5-0.2,1-0.2,1.6l0,0.1l0.1,0.1c0.1,0.2-0.1,0.8-0.2,1.3c0,0.1,0,0.2-0.1,0.2c-0.1,0.6-0.1,1.2-0.2,1.8     c-0.1,0.6-0.3,1.2-0.5,1.7c-0.3,1.1-0.4,2.3-0.8,3.4c0.1-0.2,0.4-0.4,0.5-0.6c0-0.1,0.1-0.1,0.1-0.2c0,0,0.4-0.9,0.5-1.3     c0-0.1,0.1-0.1,0.1-0.2c0.1-0.4,0.2-0.4,0.2-0.4l0,0.1c0.1-0.1,0.1-0.2,0.1-0.3C441,97,441.5,95.7,441.4,95.5z"/>
			<path class="st5" d="M435.9,83.6l-0.2-0.1l-0.1,0.1l-0.1,0.3c0,0.1-0.1,0.5-0.1,0.6c0,0.1,0,0.1,0,0.2l0,0.1c0,0.1,0,0.3,0,0.4     c-0.2,0.5-0.2,0.5-0.2,0.6c-0.1,0.6-0.2,0.8-0.1,1.1c0,0.3,0.3,0.5,0.3,0.5c0.1,0,0.1,0,0.5,0c0.1-0.3,0.1-0.6,0.2-1     c0-0.2,0-0.3,0-0.5c0-0.1,0-0.2,0-0.2c0-0.1,0-0.2,0-0.2c0,0,0-0.4-0.3-1.2C435.8,84.2,435.8,84.2,435.9,83.6z"/>
			<path class="st5" d="M443,91.9c0.1-0.4,0.2-0.8,0.3-1.2c0,0,0-0.1,0.2-0.8L443,91.9C442.9,92,442.9,91.9,443,91.9z"/>
			<path class="st5" d="M377.5,23c0.1-0.2,0.4-0.2,0.5-0.3c-1.7-0.1-3.4-0.1-5.1-0.2c0,0.3,0.3,0.4,0.3,0.6l0,0.1     c0,0.1-0.2,0-0.2,0.2c0,0.1,0,0.4,0.2,0.5l0.2,0.1c0,0,0.2,0.3,0.2,0.3c0,0.1,0,0.1,0,0.2l0,0.2c0,0.3,0.2,0.4,0.5,0.7     c0.2,0.2,0.2,0.2,0.2,0.3c0,0.2-0.2,0.3-0.2,0.4l0,0.1c0,0.1,0.1,0.2,0.1,0.4c0.4,0,0.8,0,1.2,0c0.1-0.5,0.1-0.8,0.5-0.8     c0.1,0,0.1,0,0.2,0l0.2,0.1c0.2,0.1,0.3,0,0.4-0.2c0.1-0.1,0.2-0.1,0.4-0.1c0-0.2,0-0.4,0-0.5c0.2,0,0.5,0,0.7,0     c0-0.2,0-0.2,0-0.4c-0.1,0-0.2,0-0.3,0c-0.3,0-0.3,0-0.4,0l0-0.2l-0.2,0c0.3-0.5,0.3-0.5,0.4-1C377.4,23.1,377.4,23.1,377.5,23z"/>
			<path class="st5" d="M445.8,70.2c0-0.5,0-1,0-1.5l0,0c0-0.2,0-0.4,0-0.6c0-0.2,0-0.2,0-0.2c-0.2-1.8-0.3-4.2-0.5-5.9     c-0.4-2.2-0.9-5.1-1.4-7.3l-1-3.8c-2.4-7-2.5-7.1-4.1-10.5c-3.2-6.1-3.7-7-5.6-9.6c-1.9-2.5-4.5-5.8-6.6-8.2l-0.3-0.4     c-5.3-5.2-5.3-5.2-8.2-7.4c-5.6-4-6.4-4.6-9.3-6.1l-4-2.1l0.1,0l0,0c-0.3-0.1-0.6-0.3-0.9-0.4c0.2,0.1,0.3,0.2,0.5,0.2     c-0.1-0.1-0.3-0.1-0.4-0.2c-0.2-0.1-0.2-0.1-0.8-0.4c-0.1,0-0.1-0.1-0.2-0.1l-0.2-0.1c0.4,0.2,0.7,0.3,1.1,0.5l0,0l0.1,0.1     c0.2,0.1,0.3,0.1,0.5,0.2c0.1,0,0.1,0.1,0.2,0.1c0.1,0,0.2,0.1,0.3,0.2l0,0l0.1,0.1l0,0c0.1,0.1,0.1,0.1,0.1,0.1l-0.1,0     c0,0-1.2-0.7-1.7-0.9C403.2,6,403.2,6,403.2,6c-0.1-0.1-0.3-0.1-0.4-0.2c-0.1,0-0.2-0.1-0.3-0.1l0,0c-0.2-0.1-0.2-0.1-1-0.4     c-0.1,0-0.1-0.1-0.1-0.1c-0.2-0.1-0.4-0.2-0.7-0.3c-0.1,0-0.1,0-0.1,0c-0.4-0.2-0.7-0.3-1.1-0.4l0,0c-0.5-0.2-1-0.4-1.5-0.6     c-0.1,0-0.1,0-0.1,0l-0.2,0c0.1,0,0.2,0.1,0.3,0.1c-0.1,0-0.3-0.1-0.4-0.1c0.1,0.1,0.4,0.1,0.6,0.2l0,0L398.1,4     c-0.1,0-0.2-0.1-0.3-0.1c-0.2-0.1-0.4-0.2-0.7-0.2l0,0c-0.1,0-0.3-0.1-1-0.3c-0.2-0.1-0.3-0.1-0.5-0.2l-0.1,0     c2,0.8,2,0.8,2.4,0.9l-0.1,0c0.1,0,0.3,0.1,0.4,0.1c0.1,0.1,0.1,0.1,0.1,0.1h0c0.1,0,0.2,0.1,0.3,0.1c0.1,0,0.2,0.1,0.3,0.1     c-0.1,0-0.1,0-0.7-0.2c-0.1,0-0.1,0-0.1,0l-0.2-0.1c0.2,0.2,0.5,0.2,0.8,0.4l0,0.1c0.1,0.1,0.3,0.2,0.4,0.3l-0.2,0     c0.4,0.4,0.4,0.4,2.3,1.3c0.1,0.1,0.2,0.1,0.3,0.1l0.1,0.1l-0.2,0l0.1,0.2c-0.1,0-0.2,0-0.3,0c-0.1,0.1-0.1,0.1-0.2,0.1l0.1,0.1     l0.1,0.1c-0.1,0-0.1,0-0.2,0c0.1,0.1,1.9,1.1,2.2,1.1l0.1,0c0.1,0,0.3,0.1,0.8,0.3c0.1,0.1,0.2,0.1,0.2,0.1l0.1,0.1     c-0.1,0-0.1,0-1.4-0.5c-0.1,0-0.2,0-0.3,0c-0.2-0.1-0.3-0.1-0.5-0.2l-0.2,0l0,0.2l0.2,0.1c0.4,0.1,0.4,0.1,0.8,0.3     c0,0,0,0-0.5-0.1l0,0c0.3,0.4,0.6,0.5,0.9,0.6c0.1,0,0.1,0,0.1,0h0.1c0.7,0.2,1.3,0.6,1.3,0.6c-0.6-0.4-1.4-0.3-2-0.8     c-0.1-0.1-0.3-0.2-0.4-0.2c-1.1-0.7-1.1-0.7-1.6-1h-0.1c1,0.6,1,0.6,1.1,0.7c0.1,0.1,0.2,0.1,0.2,0.1l-0.2,0     c0.3,0.3,0.6,0.6,0.6,0.6l0.1,0.1c1.8,1.1,1.8,1.1,2,1.3l0.1,0.1c0.5,0.3,0.9,0.7,1.4,1c0.2,0,0.3,0,0.4,0     c-0.1-0.1-0.1-0.2-0.2-0.3c-0.1-0.1,0-0.1,0-0.1c0.7,0.3,1.3,0.8,2,1.2c-0.4-0.2-0.9-0.5-1.2-0.5l-0.1,0.1c0.2,0.3,2,2,2,2     l-0.2,0c0,0.1,0,0.2,0,0.3c0.1,0.1,0.1,0.2,0.2,0.2l0.1,0.1c-0.2,0-0.2,0-0.6-0.2c-0.3-0.1-0.5-0.1-0.6-0.1l-0.2-0.1     c0-0.1-0.1-0.2-0.2-0.3c0.2,0,0.4,0.1,0.7,0.1c0.1-0.2,0.1-0.3-0.5-1c0-0.1,0-0.1-2.8-2.3c-0.1-0.1-0.2-0.1-0.2-0.2     c-0.9-0.8-1-0.8-2.2-1.5c-0.4-0.3-0.7-0.5-1-0.7c0.1,0,0.1,0,0.2,0l-1-0.7c-0.2,0-0.4-0.1-0.6-0.2h-0.1l-0.2,0l0,0.2l-0.2,0     c0.3,0.3,1.5,1.3,1.5,1.3c-0.1,0.1-0.1,0.1-0.2,0.1l0.1,0.2c0.1,0.1,0.2,0.1,0.2,0.1l0.1,0.1c0.1,0.1,0.1,0.1,0.2,0.1     c0.2,0.1,0.9,0.5,0.9,0.7c0.2,0.4,0.6,0.6,2,1.2c0.5,0.3,0.5,0.3,1,0.8c-0.1,0-0.1,0-0.2,0c-0.2,0-0.3,0-3.5-1.4     c-0.2,0-0.4,0-0.5,0c-0.2-0.1-0.3-0.2-0.5-0.2c-0.2,0-0.3,0-0.5,0c-0.4-0.1-0.7-0.4-1.1-0.5c-0.2-0.1-0.3-0.2-0.5-0.2     c-0.1,0-0.2,0-0.2,0V10c0.8,0.8,2.2,0.7,2.8,1.7c-0.1,0.1-0.1,0.1-0.2,0.1c0,0.2,0.1,0.3,0.1,0.5l-0.1,0     c-0.6-0.7-0.6-0.7-0.7-0.7c-0.1,0-0.1,0-0.2,0l0,0.2l0.1,0.1l-0.1,0.1h-0.1l-0.2,0c3,3.3,5.8,7.1,8.3,11.4     c-2.5-4.3-5.3-8.1-8.4-11.4c0,0.1,0,0.2,0,0.2c-0.1,0-0.2,0-0.2,0c-0.2,0-0.2,0-0.2,0c-0.1,0-0.2,0-0.2,0c0,0.1,0.1,0.3,0.2,0.4     c-0.1,0-0.2,0-0.3,0c-0.3-0.2-0.3-0.2-0.9-0.9l-0.1,0.2c-0.1,0-0.1,0-0.2,0l-0.1,0.2c-0.1,0.1-0.2,0.1-0.2,0.1     c-0.1,0-0.1,0-0.2,0c0,0.1,0,0.2-0.1,0.2c-0.2,0.1-0.2,0.1-0.3,0.1c-0.3,0.1-0.3,0.1-0.4,0.5c-0.1,0-0.3,0.1-0.4,0.1l-0.1,0.2     c0.4,0.4,0.4,0.4,0.5,0.4c-0.1,0.2-0.1,0.2-0.6,0.4c-0.1,0-0.1,0-0.1,0c-1-0.8-1-0.8-1.1-1c0.2,0,0.4,0,0.6,0     c-0.1-0.1-0.2-0.3-0.3-0.4c-0.1-0.1-0.2-0.1-0.4-0.2c-0.2-0.2-0.2-0.2-0.5-0.4c-0.1,0-0.1,0-0.2,0.1h-0.1     c-0.2-0.1-0.3-0.2-0.6-0.2c-0.1,0-0.2,0-0.2,0c-0.1,0.1-0.1,0.2,0,0.3c0.1,0,0.2,0,0.2,0c0.4,0.3,0.5,0.6,0.7,0.9     c-0.1,0.2-0.1,0.3,0.3,0.6c0.1,0.1,0.1,0.1,0.6,0.4l0.1,0.1c0,0.3,0.2,0.5,0.3,0.7c-0.4-0.1-0.4-0.1-0.6-0.1l-0.1-0.1     c0,0,0,0-0.9-0.1c0,0.1-0.1,0.3-0.1,0.4c-0.5,0.2-0.5,0.2-0.6,0.5c-0.1,0-0.2,0-0.2,0h0c0.2,0.4,0.8,0.6,0.9,1.1l0,0     c-0.6,0-0.6,0-0.8-0.1c-0.1,0-0.1,0-0.2,0c-1.1-0.2-1.4-0.6-1.5-0.7c-0.1,0.1-0.2,0.2-0.3,0.2c0,0.2,0,0.4,0.5,0.5l0.1,0.2     c0.1,0.1,0.2,0.1,0.2,0.1c0.3-0.1,0.4,0,0.8,0.3c0,0.1,0,0.1,0,0.2c-0.2,0-0.5,0-0.7,0l-0.1,0.2l-1.8-1.5c-0.1,0-0.3,0-0.4,0     l-0.2-0.5c-0.3-1.1-1.7-1-2.1-2c0.5,0.1,2.1,0.8,2.1,0.8c0.5,0.1,0.8,0.1,1.1,0.1c0.3,0.1,0.6,0.2,1,0.3c0.2,0,0.2,0,0.3,0l0.1,0     c2.4-0.8,0-2,0-2l-2-0.7c-0.1-0.1-0.3-0.2-0.4-0.2c-0.2-0.1-0.3-0.2-0.8-0.1c-0.2,0-0.2,0-0.3,0c-0.2-0.1-0.4-0.2-0.6-0.3     c-0.2-0.1-0.3-0.1-0.4-0.1l0.1,0.2c-0.2,0.1-0.2,0.1-0.2,0.1l-0.2-0.1V11c0-0.1,0-0.1,0-0.2c-0.2-0.1-0.3-0.1-0.4-0.4     c-0.1,0-0.2,0-0.3,0l-0.1,0.2c-0.3-0.1-0.7-0.2-1-0.3c-0.1-0.1-0.1-0.1-0.2-0.2c0.1,0,0.1,0,0.2,0c0-0.1,0.1-0.2,0.1-0.2     c-0.1-0.1-0.5-0.4-1.3-0.5c0,0.1,0.1,0.2,0.1,0.4c-0.1,0-0.2,0-0.2,0C383,9.7,383,9.6,383,9.5l0.1-0.2c0-0.1,0-0.1,0-0.1l-0.8,0     c0,0.1,0.1,0.3,0.1,0.4c0,0.1,0,0.2,0,0.2l-0.1,0.1c0-0.3,0-0.4-0.3-0.5c-0.1,0-0.2,0-0.3,0L381.7,9l-0.1,0l0,0     c-0.2,0.1-0.4,0.2-0.6,0.3c0,0.1-0.1,0.3-0.2,0.3h-0.1l-0.2-0.1c0-0.1,0-0.1,0-0.2c0-0.1-0.2-0.1-0.3-0.1     c-0.3,0.1-0.4,0.1-0.6,0.2c0.1,0.3,0.1,0.3,0.6,0.4c0,0.1,0.1,0.2,0.1,0.3c-0.1,0-0.2,0-0.2,0c-0.1-0.1-0.1-0.1-0.6-0.1     c-0.2,0-0.3,0-0.4,0c0.1,0.4,0.1,0.4,0,0.6c-0.1-0.1-0.1-0.3-0.2-0.4c-0.3-0.1-0.6-0.4-0.9-0.4c0,0.1,0,0.2,0,0.2     c0.3,0.7-0.1,0.8-0.3,0.8c-0.1-0.1-0.2-0.2-0.2-0.4l-0.1,0.2c-0.1,0-0.1,0-0.2,0c0,0.1-0.1,0.2-0.2,0.2c0.1,0.1,0.2,0.2,0.3,0.2     c0,0.1,0,0.2,0,0.2l-0.2,0.1c0,0,0,0-0.6-0.2c0-0.1,0-0.3,0-0.4c-0.1,0-0.1,0-0.2,0c0,0.1,0,0.3,0,0.4c-0.5,0.1-0.5,0.1-0.6,0.1     l0.1,0.2l-0.1,0.2c-0.4,0-0.4,0-0.6,0.2l-0.1,0l-0.2,0.3l-0.1,0l-0.1,0.2c0.1,0,0.2,0,0.2,0c0.4-0.3,0.4-0.3,0.7-0.2     c0.5-0.4,1-0.3,1.2-0.3c0,0.1,0,0.2,0.1,0.2c-0.2,0-0.2,0-0.8,0.2c-0.1,0.2-0.3,0.4-0.3,0.7c-0.1,0.1-0.2,0.1-0.4,0.2     c-0.2,0.4-0.7,0.7-0.7,0.7c-0.1,0.4-0.4,0.7-0.4,1.1l0-0.1c-0.2,0.1-0.3,0.2-1.1,0.6l-0.1,0.2c0.1,0,0.1,0,0.2,0     c0.2,0,0.3,0,0.4,0c-0.2,0.8-1.2,0.8-1.6,1.4c-0.1,0-0.3,0-0.4-0.1c-0.1,0-0.2,0-0.3,0l-0.1,0.3c0,0.1,0,0.2,0.1,0.2     c-0.1,0.1-0.3,0.1-0.4,0.2c-0.1,0-0.1,0-0.2,0h0l0,0h0c-0.3,0.1-0.6,0.3-1,0.4c-0.1,0.6-0.7,0.5-1.1,0.8c0,0.1,0,0.3,0,0.4     c0,0,0,0-0.3,0.9c-0.1,0-0.1,0-0.2,0c-0.1,0.3-0.1,0.4-0.2,0.5c0.1,0,0.3,0,0.4,0c0.1,0,0.1,0,0.2,0l0.1,0.2     c-0.1,0.1-0.2,0.2-0.3,0.3c-0.1,0.4-0.1,0.4-0.3,0.5c0,0.1,0,0.1,0,0.2c0.2,0.1,0.2,0.1,0.7,0.1c-0.1,0.4-0.1,0.4-0.3,0.5     c1,0,1.9,0.1,2.9,0.1c0.3-0.3,0.3-0.3,0.9-0.5c0-0.1,0-0.2,0.1-0.3c0.3,0,0.3,0.4,0.5,0.5c0,0.1,0,0.2,0,0.2     c1.7,0.2,3.4,0.2,5.1,0.3c0.2-0.1,0.4-0.2,0.6-0.3c0-0.3,0-0.3,0.5-0.6c0-0.2,0-0.3,0-0.3c0-0.1,0-0.1-0.1-0.2     c-0.3,0-0.5-0.1-0.8,0c0-0.4,0-0.4-0.1-0.6c-0.1,0-0.3-0.1-0.4-0.2c0-0.6,0-1,0-1.5c0,0,0,0,0.6-1.1c0.9-0.2,1.6-1.1,1.6-1.1     c0.2-0.1,0.2-0.1,0.6-0.2l0.1-0.2c-0.2-0.7,0.2-1.2,0.3-1.8c0.2-0.1,0.2-0.1,0.6,0l0,0l0,0h0l0,0c0.3,0.4,0.3,0.4,0.5,0.4     l0.1-0.2c0.3,0.1,0.4,0.2,0.5,0.4c0.1,0.3,0.1,0.4,0.2,0.6c-0.1,0-0.3,0-0.4,0c0.1,0.6,0.1,0.6-1.9,2.2c0,0.6,0,1.1,0.1,1.7     l0,0.2c0,0.1,0.1,0.3,0.1,0.4c0.4,0.3,1.9,1.1,1.9,1.1c0.1,0,0.1,0,0.1,0c0.5-0.3,1.1-0.1,1.6-0.3l0-0.2c0.6-0.1,1-0.1,1.4,0     c0.1-0.1,0.3-0.1,0.4-0.2l0.1,0c0.1,0.1,0.2,0.2,0.2,0.3c0.4,0.1,0.7,0.1,1,0.1l0.1,0.2l-0.1,0.2c-1,0-1.2,0-1.5,0.8     c-0.9,0.3-1.7-0.6-2.6,0c-0.3-0.1-0.3-0.1-0.6,0c0,0.1-0.1,0.3-0.2,0.4c6.3,0.3,12.6,0.4,18.5,0.5c-5.9-0.1-12.2-0.2-18.5-0.3     c-0.1,0-0.1-0.1-0.2,0l-0.1,0l0,0c-0.1,0-0.1,0-0.2-0.1l0-0.2l-0.1,0c-0.1,0-0.2,0-0.3,0c0,0,0,0-0.1,0c-0.1,0-0.1,0-0.1,0l0,0.2     l0.1,0.1c0.2,0,0.2,0,0.2,0h0l0,0h0l0,0h0c-0.2,0.1-0.5,0.2-0.7,0.3c0,0.1,0,0.3,0,0.4c0.4,0.2,0.4,0.2,1,0.2     c0.1-0.2,0.4-0.4,0.5-0.5c0.4,0.2,0.6,0.7,1,0.9c0,0.1,0,0.2,0,0.4c-0.2,0.1-0.4,0.3-0.5,0.5c-0.1,0.2-0.2,0.2-0.3,0.2     c-0.1,0-0.2-0.1-0.4-0.1c-0.1-0.1-0.1-0.2-0.2-0.3c-0.2-0.2-0.3-0.2-0.3-0.2c0-0.1,0-0.2,0-0.4c-0.1,0-0.2,0-0.3,0     c-0.1,0.2-0.3,0.4-0.5,0.5c-0.1,0.8-0.4,2.4-0.4,2.4c0.1,0.1,0.2,0.2,0.2,0.2l-0.1,0.2c-1.3-0.3-1.3-0.3-1.7,0     c0.1,0.2,0.2,0.5,0.4,0.6l0,0.2l-0.2,0c-0.4-0.3-0.8-0.6-1.2-0.9c-2.8,1.2-3.6,1.6-3.5,0.3l-0.4,0c-0.2,0.1-0.4,0.2-0.6,0.2     c-0.2,0-0.3,0-0.4,0c-0.1,0-0.3,0-0.4,0c0,0.1,0,0.2,0,0.3c-0.2,0.2-0.3,0.2-0.4,0.2c-0.1,0-0.2-0.1-0.3-0.1     c-0.1-0.2-0.2-0.4-0.4-0.4c-0.1,0-0.2,0-0.4,0c0-0.1,0-0.2,0-0.3c0-0.1,0-0.2,0.1-0.3c0.2,0,0.5,0,0.7,0c0.4,0.1,0.7,0.3,1,0.3     c0.1-0.2,0.4-0.5,0.4-1.6c-0.1-0.1-0.2-0.1-0.3-0.1c-0.7,0.2-0.7,0.2-0.9,0.4c-0.2,0.1-0.2,0.1-0.2,0.1h0c0-0.1-0.1-0.2-0.1-0.3     c0.1-0.1,0.2-0.2,0.2-0.3c0.1-0.2,0.1-0.3,0.1-0.4c-0.1,0-0.2,0-0.3,0c-0.2-1.4-0.2-1.4-0.4-1.5c-0.7,0.8-0.7,0.8-1,0.8     c-0.1,0.1-0.1,0.2-0.2,0.3c0,0.2,0,0.2,0,0.2c-0.2,0.1-0.4,0.3-0.6,0.4c-0.2,0.6,0.4,1.1,0.3,1.6c0,0.1,0,0.1,0,0.2l-0.1,0.4     c0.1,0.2,0.2,0.5,0.2,0.6c0,0.2,0,0.4,0,0.5c-0.1,0-0.2,0-0.3,0c-0.1,0-0.2,0-0.4,0.1c-0.4,0-0.5,0-0.6,0c-0.8-0.1-0.8-0.1-2.5,1     c-0.3-0.1-0.4-0.1-0.4-0.1c-0.1,0-0.1,0-0.2,0c-0.1,0-0.2,0-0.3,0c0,0.1-0.1,0.2-0.1,0.4l0.3,0.2c0,0.2-0.1,0.4-0.1,0.6     c-0.6,0-0.7,0.1-1.6,0.8c-0.2,0.1-0.3,0.1-0.3,0.1c-0.1,0-0.2,0-0.4,0c-0.3,0.4-0.4,0.8-0.4,1.1c-0.6,0-0.6,0-1.1,0.1     c-0.1,0.2-0.1,0.4-0.1,0.6c-0.2,0-0.5,0-0.7,0c-0.2-0.1-0.2-0.1-0.2-0.1c-0.1,0-0.2,0-0.3,0c-0.2-0.1-0.2-0.2-0.2-0.3     c-0.1-0.1-0.2-0.1-0.3-0.2c-0.2,0.2-0.3,0.4-0.3,0.6c0.1,0,0.2,0.1,0.3,0.2c-0.1,0.1-0.2,0.3-0.3,0.4l0.1,0.2c0,0.1,0,0.2,0,0.2     c-0.5,0-1-0.1-1.5-0.1c-0.1-0.1-0.1-0.2-0.2-0.3c-1,0.2-1,0.2-1.3,0.5c0.1,0.3,0.2,0.3,0.2,0.3c0.1,0.2,0.3,0.3,0.5,0.4     c0.4,0,0.5,0,0.5,0c0.6,0.6,0.6,0.6,0.7,0.8c0.1,0.6,0.1,0.9,0,1.3c0.2,0.3,0.5,0.5,0.8,0.7c-0.1,0.5-0.1,0.5-1,2.8     c-0.2,0.1-0.5,0.3-0.8,0.3c-0.2,0-0.2,0-0.3,0c-0.5-0.2-1.2-0.1-1.6-0.7c-0.8-0.1-1.4-0.1-2-0.2c-0.8-0.1-0.8-0.1-1-0.3l-0.1,0     c-0.1,0.1-0.2,0.2-0.2,0.3c-0.5,0.2-0.8,0.2-1.1,0.2l-0.1,0.2c0.5,0.8-0.3,1.6,0,2.4c-0.1,0.4-0.2,0.8-0.2,1.3     c-0.9,1.5-0.9,1.5-0.7,1.9c0.1,0.4,0.1,0.4,0.1,0.5l0,0.2c-0.3,0.4-0.3,0.4-0.3,1c0.2,0.1,0.4,0.1,0.6,0.1c0.4-0.1,0.6-0.1,1,0.3     c0.2,0,0.5-0.1,0.7-0.1c0.1,0.1,0.1,0.1,0.8,0.5c0.1,0.2,0.2,0.5,0.3,0.7c0.1,0,0.2-0.1,0.3-0.1l-0.2-0.1c2-0.6,3.5-2.2,5.7-2.2     c0.3-0.3,0.4-0.5,0.4-0.8c-0.1-0.2-0.3-0.4-0.4-0.6c0-0.2,0-0.2,0.7-1.3c0.4-0.7,3.1-1.2,3.1-1.2c0.2-0.2,0.3-0.4,0.3-0.7     c0-0.1,0-0.1,0-0.2c0-0.9-0.1-1.7,1.4-1.4c0.2,0,0.2,0,0.2,0h0l0,0h0l0,0h0c0.6,0.4,0.6,0.4,1.1,0.4c0.1,0,0.2,0,0.3,0     c0.1,0,0.3,0,0.4,0c0.1-0.4,0.1-0.5,0.5-0.9c0.3,0,0.4,0,0.4,0c0.3,0,0.6,0,1.2-0.6c1.3,0.2,1.2,1.7,2.1,2.2     c0.2,0.1,0.4,0.4,0.5,0.5c3.1,2.1,4.6,3.7,4.5,4.6c-0.6,0.2-2.8,0.5-3.6,0.5c-0.1,0.1-0.1,0.2-0.2,0.3c0.6,0.3,1,0.9,1.6,1.2     c0.6,0,1,0,1.4,0.1c0-0.3,0-0.6,0-0.8c1-0.4,1.5-1.3,2.2-1.9c0-0.4,0-0.5,0-0.6c-0.4,0-0.6,0-0.7,0c-0.2-0.1-0.2-0.2-0.2-0.3     c0.3-0.3,0.6-0.3,0.9-0.3c0.6,0.2,0.6,0.2,0.9,0.5c0,0,0,0-0.1-1c-0.7-0.5-1.6-0.7-2-1.5c-0.2,0-0.8,0-1.8-0.9     c0.2-0.4,0.2-0.4-0.9-1.2c-0.1-0.1-0.2-0.1-0.3-0.1c0-0.2-0.1-0.5-0.2-0.7c-0.2,0-0.5,0-0.8,0c0-0.2,0-0.4,0-0.6l0.2-0.2     c0.2-0.2,0.2-0.2,0.2-0.2c-0.1-0.2-0.1-0.5-0.1-0.7c0.7-0.2,0.8,0,1,0.6c1.6,0.2,2,2.2,3.6,2.4c0,0.1,0,0.1,0.1,0.2     c0.6,0.7,1.8,0.9,2.3,1.8c-0.5,1.2-0.5,1.2,0,1.6c0,0.6,0,1.2,0.9,1.3c0.3,0.4,0.3,0.7,0.3,1c-0.2,0-0.4,0-0.5,0     c-0.1-0.1-0.1-0.2-0.2-0.3c-0.1,0.1-0.1,0.2-0.2,0.3c0.5,0.8,0.5,0.8,1.1,1c0-0.1,0.1-0.2,0.1-0.3c0.4,0.2,0.4,0.2,0.8,0.7     c0,0.2,0,0.5,0,0.7c0.3,0.1,0.5,0.1,0.7,0.1c0.1,0,0.3,0,0.4,0c0.1-0.2,0.3-0.4,0.4-0.6c0-0.1,0-0.2,0-0.3c0-0.1-0.1-0.2-0.1-0.3     c0.1-0.1,0.2-0.1,0.3-0.2c0.2,0.1,0.5,0.2,0.6,0.3c0.2,0,0.2,0,0.3,0c0.1-0.1,0.2-0.2,0.3-0.2c0-0.2,0-0.5,0-0.6     c0.2,0,0.5,0,0.7,0c-0.2-0.4-0.3-0.5-0.8-0.7c0,0.2-0.1,0.5-0.2,0.7c-0.5-0.1-0.6-0.3-0.9-1.4c-0.6-0.2-0.6-0.2-0.9-0.5     c0-0.3,0-0.4,0-0.4l0.4-0.1c0.2,0.1,0.4,0.3,0.6,0.4c0.3,0,0.4,0,0.5,0c0.1,0,0.1,0,0.2,0c0-0.2,0-0.5,0-0.7     c0.4-0.3,0.4-0.3,2.3,0.3c0,0.1,0,0.2,0,0.3c0.1,0,0.2,0.1,0.2,0.1l0.2,0.4c-0.1,0-0.2,0.1-0.4,0.1c-0.1,0.7,1,0.9,0.8,1.7     c0,0.1,0,0.3,0,0.4c0,0.1,0,0.2,0,0.3c0.1,0.2,0.2,0.4,0.3,0.6l0.1,0.1l0.1,0.1l0.1,0.1l0.1,0.1l0.1,0.1c0,0.1,0.1,0.2,0.1,0.3     l-0.1,0.1l-0.1,0.1l0,0.1c0,0.2,0.1,0.5,0.1,0.7l0.1,0.1l0.1,0.1l0.2-0.4l0.1-0.3c0-0.1,0-0.3,0-0.5c0.1-0.3,0.1-0.3,0.2-0.3     l0.1,0l0.1,0.1l0.1,0.1l0.1,0.1c0.1,0.1,0.3,0.2,0.4,0.3l0.1,0.1l0.1,0.1l0.1,0.1l0.1,0c0.2,0,0.4,0,0.6,0.1c0.3,0,0.3,0,0.4,0     l0.1-0.1l0.1-0.1l0-0.1l0-0.1c0-0.2,0-0.4,0-0.6L392,50l0.2-0.1c0.2,0,0.5,0,0.7,0.1l0.3,0.3l0.4,0.3l0.1,0.1l0.1,0.1l0.1,0     L394,51c0.5,0,1,0,1.5,0c0-0.1,0-0.2,0-0.3c0-0.1,0-0.1,0-0.2c0-0.1,0-0.2,0-0.3c0.1,0,0.2-0.1,0.3-0.1l0.1,0l0.2,0     c0.2,0.1,0.5,0.2,0.7,0.4c0.3,0,0.3,0,0.4,0l0.1-0.1l0-0.1l0.1-0.1l0.1,0l0.2,0.3l0,0.1c0,0.2,0,0.5,0,0.7     c-0.1,0.4-0.2,0.8,0,1.3l0,0.1c0,0.1,0.1,0.2,0.2,0.3c0,0.1-0.1,0.2-0.1,0.4l-0.1,0.1l0,0.1l0,0.4l-0.1,0.1     c-0.4,0.6-0.4,0.6-0.6,0.8l-0.1,0.1l-0.1,0.1l0,0.1c4.4,0.2,8.7,0.3,12.9,0.3c-4.2-0.1-8.5-0.1-12.9-0.2c0,0-0.2,1.1-0.5,1.4     l-0.1,0.1l-0.1,0.1l-0.1,0c-0.2,0-0.2,0-0.6,0.1l-0.1,0l-0.1,0l-0.1,0.1l-0.1,0.1c-0.1,0-0.2-0.1-0.3-0.1     c-0.1-0.1-0.2-0.1-0.2-0.2c-0.1,0-0.1,0-0.2,0c0,0-0.5,0-1-0.2h-0.1l-0.1,0l-0.1,0.1c0.4,0.2,0.5,0.3,1.1,0.4     c0.1,0.1,0.1,0.2,0.1,0.2l0,0.1c0.1,0.1,0.2,0.2,0.2,0.3c0,0.1,0,0.2,0,0.3l0,0.1l0,0.1c0,0.7,0.6,1.1,0.8,1.6     c0.4,0.6,0.4,0.6,0.7,0.8c0.2,0,0.3,0,0.3,0c0.4,0,0.4-0.4,0.7-0.6c0,0.1,0.1,0.1,0.2,0.2c0.3,0.5,0.9,0.9,1.2,1.4l1,2.2     c0,0.2,0,0.2,0,0.2c-0.1,0.3-0.1,0.8,0.1,1.1c0.2,0.3,0.7,0.2,0.9,0.5c0.1,0.1,1.2,2.1,1.2,2.1c0.3,0.7-0.5,1.8,0.5,2.3     c0,0,1.2,0.9,1.4,1.8c0.1,0.5,0.2,0.6,0.4,0.7c0.5,0.4,0.5,0.4,1.9,3.9c0,0.8-0.1,1.5-0.1,2.2c0.2,1.1,1.7,1.4,2.2,0.8     c0.8-0.9,0.8-0.9,1.1-1c0.4,0,0.8,0,1.2,0h0.1c0.1,0.1,0.2,0.1,0.2,0.2h0.1c0.1-0.1,0.2-0.3,0.3-0.5c0.7-1.2,2.4-0.7,3.2-1.7     c0.2-0.3,0.2-0.3,0.9-0.2l0.1-0.1c0-0.6,0-0.6,0.2-0.8c0.2,0,0.2,0,0.6-0.3c0.2-0.2,0.2-0.2,1.9-0.1c0,0,0-0.8,0.3-1.3     c0.4-0.1,0.7-0.1,1-0.1c0.1-0.6,0.4-1.1,0.4-1.1c0.1-1.7,0.1-3.3,0-4.9c0,1.6,0.1,3.2,0,4.9c0,0,0,0,0.2,0c0.1,0,0.1,0,0.2,0     c0.1,0,0.1,0,0.2,0c0-0.1,0.1-0.3,0.1-0.5c0-0.1,0.1-0.2,0.1-0.2l0-0.1c0-0.3,0.3-0.8,0.5-0.9h0.1c0.1,0.1,0.1,0.3,0.3,0.3     c0.2-0.7-0.1-1.4,0.2-2c0-0.1,0-0.1,0.3-0.1c0.1,0,0.2,0,0.4-0.2l0,0c0-0.3-0.1-0.5-0.2-0.7c-0.1-0.1-0.2-0.1-0.3-0.1l-0.3-0.2     c-0.1-0.2,0-0.5-0.1-0.7c-0.2-0.5-0.6-0.6-0.7-0.6c-0.5,0,0-0.8-0.2-1.1l-0.4-0.2c-0.1,0-0.2,0-0.4,0c0,0.6,0,0.6-0.1,0.8     c0,0.5,0,1.1,0,1.6c0-0.5,0-1.1-0.1-1.6l-0.1,0.1c-0.2-0.2-0.1-0.5-0.2-0.8c-0.1-0.1-0.1-0.1-0.3-0.3c0-0.4-0.1-0.8-0.1-1.2     c-0.1-0.2-0.1-0.2-0.3-0.3c-0.6,0.2-0.6,0.2-0.7,2c-0.2,0.1-0.5,0-0.7,0c-0.2,0-0.2,0-0.3,0c-0.2-0.1-0.3-0.2-0.5-0.2     c-0.1,0-0.2,0-0.2,0c-0.5,0.5-0.5,0.5-0.7,0.8c0,0-0.8-0.1-0.9-1.1c0.1,0,0.1-0.1,0.2-0.1c0.2-0.2,0.3-0.2,0.4-0.2     c0.1,0,0.1,0,0.2,0c1.2,0.6,1.1-0.2,1.1-0.2l-0.1-0.1c-0.2-0.1-0.2-0.1-0.3-0.1c-0.1,0-0.2,0-0.3,0c-0.2,0-0.2,0-0.3,0     c-0.6-0.2-1.1-0.2-1.7-0.4c-0.2,0-0.2,0-0.3,0c0-0.4,0-0.8-0.1-1.2c-0.2-0.3-0.2-0.3-1.5-0.8c-0.3-1-1-2-0.8-3.1     c0.1-0.8,1.2-0.3,1.2-0.3c0.1,0,0.1,0,0.8,0.8c0.5,0.5,0.5,0.5,0.9,1.3c0.3,0.5,0.8,0.6,1.2,0.9c0.6,0.7,0.8,0.9,2.3,1     c0.1,0,0.2,0,0.2,0h0.2c0.2-0.1,0.4-0.1,0.7-0.2c0.2-0.1,0.2-0.1,0.3-0.1c0.4,0,0.4,0,0.7,0.4l0,0c0.2,0.4,0.2,1,0.7,1.1     c0.4,0,0.7,0,1,0c0.6-0.2,0.7,0.4,1.1,0.6h0.9c0.1,0.1,0.3,0.1,0.4,0.2h1.4l1-0.2c0.3,0,0.6,0,0.9,0c0,0,1.5,1.3,1.6,2.4     c0.1,0,0.1,0,0.2,0c0.1,0.1,0.1,0.1,0.3,0.5c0.2,0,0.3,0,0.3,0c0.2,0,0.3,0,0.9,0.5c-1.4,0.1-0.7,0.8-0.7,0.8     c0.6,0.4,0.4,1.4,1.4,1.4c0.4-0.5,0.4-0.5,0.6-0.6c0-0.1,0.1-0.3,0.1-0.4c0.1,0,0.1-0.1,0.2-0.1c0.6,0.4,0.6,2.7,0.6,2.8     c0,0.3,0,0.5,0,0.7c-0.4,2.7,1.3,5.1,1,7.8c0,0.1,0,0.2,0,0.2c-0.3,1.5,0.3,2.9,0.4,4.3c0.1,0.1,0.1,0.3,0.2,0.4     c0.1,0,0.1,0,0.2,0c1-0.8,1-0.8,2.2-6.1c0-0.5,0.1-0.9,0.1-1.4c0.1-1.4,0.1-1.4,0.3-1.6c1.3,0.1,2.3-4.3,2.3-4.3c0,0,0,0,0.5-0.9     c0.1,0,0.1,0,0.1,0h0l0,0h0l0,0h0c0.2-0.2,0.2-0.2,0.2-1.6c0.1-0.2,0.3-0.2,0.4-0.2l0.1,0.1c0.1,0,0.1,0,0.1,0     c0.1-0.3,0.4-0.6,0.4-0.9c0.1,0,0.3,0,0.4-0.1c0-0.2,0-0.5,0-0.7l0.2,0c0.3,0.7,0.4,1.5,0.6,3c0.3,0.7,0.3,0.7,0.3,1     c0,0.1,0,0.2,0,0.3c0,0.3,0,0.3,0,0.7v0.1l0.2,0c0.5,1-0.4,2.2,0.2,3.2c0.1,0,0.1,0,0.2,0c0.1-0.2,0.1-0.3,0.3-0.5     c0.1-0.1,0.1-0.2,0.1-0.3c0-0.1,0-0.2,0-0.2c0-0.1,0-0.2,0-0.2c0.7,0.6,0.3,3.4-0.3,8.3c0,0.2,0,0.3,0,0.3     c-0.2,1.2,0,2.3-0.2,3.5c0,0.2-0.1,0.2-0.1,0.3c-0.1,0.6-0.1,1.3-0.3,1.9c-0.1,0.6-0.2,1-0.3,1.4c-0.1,0.6-0.3,1.7-0.2,2.7l0,0     c0.2-0.5,0.2-0.9,0.2-0.9c0.1-0.6,0.7-3.2,0.7-3.2c0-0.2,0.1-0.3,0.1-0.3c0-0.1,0-0.1,0-0.2c0-0.1,0-0.2,0.1-0.3     c0-0.1,0-0.2,0-0.2c0-0.2,0.1-0.4,0.1-0.6c-0.1-0.2-0.1-2.6,0-3.4c0-0.1,0-0.2,0-0.3c0-0.2,0-0.2-0.1-0.5     c0.1-0.4,0.1-0.8,0.2-1.2c0.1-0.5,0.6-3.1,0.6-3.1c0.2,0.4,0.1,0.8,0.1,1.3c0,0.1,0.1,0.1,0.1,0.1l0.1-0.2     c0.2,0.8,0.2,0.8-0.3,5.1c1.1-4,1.1-4,1.3-6c0-0.3,0.1-0.6,0.1-0.9c0.2-1.8,0.2-1.8,0.1-3.7c-0.1-1.2-0.1-4.2,0.1-5.8     c0.1,0,0.1,0.1,0.1,0.2c0,0.1,0,0.2,0,0.2c0,0.5,0,0.9,0,1.4c0,0.6-0.1,1.2-0.1,1.9c0.1,0.1,0.1,0.1,0.1,0.1     C445.8,70.6,445.8,70.5,445.8,70.2z M408.6,12.7c-0.1-0.1-0.2-0.1-0.2-0.2c0.2,0.1,0.4,0.2,0.6,0.3c0.2,0.1,0.5,0.2,0.7,0.3     c-0.1,0.1-0.1,0.1-0.1,0.1C408.8,12.9,408.8,12.9,408.6,12.7z"/>
			<path class="st5" d="M409,82.2c-0.1,0-0.3,0-0.8,0c-1.1,0.2-1.4,0.1-2.1-0.2c-0.5-1.1-0.5-1.1-0.5-1.5c-0.1-0.1-0.3-0.1-0.4-0.2     c-0.1-0.3-0.2-0.7-0.2-1.1c-3.3-2.7-6.2-5.1-5.5-7.6c0-0.2,0-0.3,0-0.9c0-0.3-0.1-0.6-0.3-0.9c-0.1-0.1-5.5-10.4-5.6-12.2     c-0.5-0.4-1.3-0.5-1.8-1c-0.1,0-0.1,0-0.5,0c-0.2,0.1-0.6,0.3-0.8,0.4c-0.1,0-0.2,0-0.2,0c-3.3-0.7-6.2-2.6-9.7-2.5     c-0.1,2.6-0.1,2.6-0.3,2.9c-0.1,0-0.3,0-0.4,0.1c-0.1,0-0.3,0-0.6,0c-0.7-0.1-1-1-1.8-1.1c-0.8,0-1.5,0-2.4-0.4     c-0.4-1.5-2.7-1.6-2.7-1.6c-1.1,0-1.1,0-2.5-4.3c0.2-0.2,0.2-0.2,1.1-0.5c0-0.1-0.1-0.3-0.1-0.4c-0.4-0.1-0.8-0.3-1.3-0.5     c-3.1,0.2-3.1,0.2-4.5,0.9c-0.8-0.7-2.2-1.9-3.8-0.2c-0.7,0-1.4-0.1-2.2-0.1c-0.1,0.2-0.1,0.2-2.6,1.4c-0.1,0-0.1,0-0.3,0     c-0.9-0.2-1.9,0.1-2.6-0.7c-0.2,0-0.4-0.1-0.5-0.1c-0.3,0.5-0.5,1.6-0.5,1.6c-0.4,0.3-0.5,0.4-1.6,0.2c-0.1,0.6-0.2,1.3-0.2,1.9     c-0.5,0-1.1,0-1.7,0.3c-0.2,1-0.6,2-0.7,3c0,0.3-0.1,0.5-0.1,0.8c-0.4,0-0.9,0-1.3-0.1c-0.2,1.3-1.7,2.1-2.3,2     c-0.8,1.5-2,2.8-2.5,4.5c-0.1,0-0.3,0-0.4,0c0,0,0,0-0.3,0.1c-0.1,0-0.3,0-0.5,0c-0.2,2.7-0.3,2.7-1.3,3.1c0,0.1-0.1,0.3-0.2,0.4     c0,0.3,0,0.6,0.2,0.9c1.6,0.3,1.6,0.3,1.7,0.7c-0.5,1-0.5,1-0.6,4c0,0.2,0,0.3,0,0.9c0,0.1,0,0.1-0.8,0.9     c0.1,0.6,0.3,1.1,0.4,1.7v0.5c0.1,2.1,3.5,4.2,3.5,4.3c0,1.3-0.1,2.2,2.8,2.9c0.1,0.5,0.1,0.5,0.1,1.2c2.4,2.3,3.9,2,3.9,2     c0.1-0.2,0.3-0.6,0.4-0.8c0.5-0.1,1.1,0.1,1.6,0c0.1,0,0.2,0,0.6,0c0.4,0,0.9,0,1.3,0.1c0.3,0.9,1.1,0.7,3,0.4     c0.5-1.2,0.9-1.1,2.8-0.9c0.1,0,0.1,0,0.2,0c1.2-1,2.2-0.6,2.5-0.5c0.4,2,0.8,2,1.6,2.2c1.3,0,2.6,0.1,4,0.1c0,0.5,0,1-0.1,1.7     c0,0-0.5,3.5-0.8,4.3c-0.1,0-0.3,0-0.4,0c-0.1,0.1-0.1,0.3-0.2,0.4c3,1.7,3.1,5.2,4.8,7.7c0,0.1-0.1,0.3-0.1,0.4     c0,0.1,0,0.3,0,0.4c0.1,0.8,0.1,0.9,0.6,1.1c0,2.3-2,4-2.1,6.3c0,1.3,0.1,1.3,0.8,1.8c0.1,1.2,0.1,1.5,1.2,2.1     c0.4,1.7,0.4,1.7,0.6,2c0,0.6,0,1.2-0.1,1.8c0,0,1.1,3.6,2.4,5c-0.1,0.5-0.1,0.6,0.3,1.2c0,0.1,0,0.1-0.1,0.3     c-0.2,0.1-0.4,0.4-0.6,0.6c0.1,0.1,0.2,0.2,0.3,0.2c0.1,0,0.2,0,0.3,0c-0.1,0.5-0.1,0.6,0.5,0.9c0.5,0,1,0,1.6,0     c0.7-0.2,0.7-0.2,1.3-0.3c0.7,0,1.3,0,2.2-0.2c0-0.1,0.1-0.3,0.1-0.4c1.8-0.3,1.8-0.3,2.1-0.8c0.1,0,5.2-2.6,4.6-5.4     c0,0,2.4-1.4,3.3-1.8c0.2-0.8,0.2-0.8-0.1-3.6c2.3-1.9,5.4-2.7,7-5.5c0.1-0.2,0.1-0.4,0.2-0.8c0.1-0.3,0.1-0.6,0-0.9     c0.2-0.8,0.4-1.6,0.4-2.6c-0.9-1.3,0.2-2.8-0.2-4.1l0-0.2c2.4-7.9,12.7-9.5,14.4-18c0-0.3,0.1-0.6-0.3-1     C411.4,81.2,410.5,82.8,409,82.2z"/>
			<path class="st5" d="M368.4,22.6c0,0.1,0.1,0.1,0.1,0.2l0,0.1c0.5,0,0.5,0,0.5,0L369,23c0,0,0,0,0.2,0.3c0.1,0,0.2-0.1,0.3-0.1     c0.1,0,0.2,0.1,0.4,0.1c0,0,0.1,0,0.2,0c0,0,0.3,0,0.4-0.2c0-0.1,0.1-0.1,0.1-0.1c0.2,0,0.2,0,0.3,0c0.1,0,0.2-0.1,0.2-0.1     l0.1-0.2c0.1-0.1,0.2-0.1,0.2-0.2c-1,0-1.9-0.1-2.9-0.1l0,0C368.4,22.6,368.4,22.6,368.4,22.6z"/>
			<path class="st5" d="M442.9,92c0-0.1,0.1-0.3,0.1-0.4l0-0.1l0,0c-0.5,1.2-0.7,2.5-1.1,3.7l0,0.1c0,0.1-0.1,0.2-0.1,0.2     c-0.3,0.7-0.3,0.7-0.4,1.3c-0.2,0.5-0.2,0.5-0.2,0.5l0,0l1.2-3.3L442.9,92C442.9,92,442.9,92,442.9,92z"/>
			<path class="st5" d="M406.5,107.3c-0.2,0.8-0.2,0.8-0.3,0.8c-0.1,0.2-0.1,0.2-1.3,0.9c-0.1,0.1-0.4,0.6-0.4,0.6     c0,0.2,0,0.2-0.1,0.3c-0.1,0.1-0.3,0-0.4,0.1c-0.2,0.2-0.2,0.5-0.4,0.7c-0.6,0.5-1.3-0.1-1.9,0.2c-0.2,0.1-0.4,0.1-0.5,0.2     c-0.2,0.2-0.1,0.5-0.2,0.8c-0.1,0.3-0.4,0.4-0.6,0.6c0,0-0.4,1.2-0.3,1.4c0.1,0.2,0.1,0.2,0.1,0.3c0,0-0.2,0.6-0.2,0.7     c-0.1,0.1-0.1,0.1-0.3,0c-0.1,0-0.1,0-0.6,0.6c-0.3,0.3-0.2,0.8-0.6,1.1c-0.1,0.1-0.1,0.1-0.2,0.2c0,0.1,0,0.1-0.1,0.2     c-0.1,0.3,0,0.6-0.1,0.9c0,0.1-0.1,0.2-0.1,0.4c-0.1,0.6-0.1,0.6-0.3,1c0.4,0,0.7,0,1.1,0c0,0.1,0,0.2,0,0.3     c0.4,0.2,1.4,0.4,2.3-0.6c0.5-0.5,0.5-1.2,0.9-1.8c0.2-0.3,0.7-0.5,0.9-0.8c0.3-0.5,0.3-1.1,0.7-1.6c0.2-0.3,0.6-0.3,0.9-0.4     c0.2-0.1,0.4-0.1,0.5-0.3c0.2-0.4,0-0.9,0.3-1.2c0.2-0.3,0.5-0.4,0.6-0.7c0-0.1,0.1-0.3,0.1-0.4c0-0.1,0-0.3,0.1-0.4     c0-0.1,0-0.1,0.1-0.2c0.2-0.3,0.5-0.4,0.7-0.7c0-0.1,0-0.1,0.1-0.2l0.6-2.2C407.4,107.9,407.3,107.6,406.5,107.3z"/>
			<path class="st5" d="M439.5,42l-0.7-1.6C439,41,439.3,41.6,439.5,42C439.5,42,439.5,42,439.5,42"/>
			<path class="st5" d="M436.3,35.7C436.3,35.8,436.3,35.8,436.3,35.7l0.1,0.2C436.4,35.9,436.3,35.8,436.3,35.7"/>
			<path class="st5" d="M445.8,68c0-0.2,0-0.5,0-0.7C445.8,67.5,445.8,67.7,445.8,68C445.8,68,445.8,68,445.8,68"/>
			<path class="st5" d="M445.7,67.1c0-0.3,0-0.6-0.1-0.9c0,0.4,0.1,0.7,0.1,1C445.7,67.2,445.7,67.2,445.7,67.1"/>
			<path class="st5" d="M445.3,63l-0.1-1c0,0.4,0.1,0.9,0.1,1.4C445.4,63.3,445.4,63.2,445.3,63"/>
			<path class="st5" d="M439.2,99.9c0-0.1,0.1-0.1,0.1-0.2l0.1-0.2c0-0.1,0.1-0.1,0.1-0.2c0,0.1-0.1,0.1-0.1,0.2     c0,0.1-0.1,0.2-0.1,0.2L439.2,99.9"/>
			<path class="st5" d="M440.6,92.9c0-0.1,0-0.1,0-0.2C440.6,92.8,440.6,92.9,440.6,92.9L440.6,92.9"/>
			<path class="st5" d="M394.7,2.8c-0.5-0.1-0.6-0.2-0.6-0.2l0,0l-0.1,0v0h0l0.2,0.1c0.1,0,0.2,0.1,0.3,0.1l0,0     C394.5,2.8,394.6,2.8,394.7,2.8c0.2,0.1,0.2,0.1,0.2,0.1l0,0C394.9,2.9,394.8,2.9,394.7,2.8"/>
			<path class="st5" d="M396.7,3.8c-0.1,0-0.7-0.3-0.8-0.3h0c0.1,0.1,0.3,0.1,0.4,0.2c0.1,0,0.2,0.1,0.3,0.1l-0.1,0     C396.6,3.7,396.6,3.8,396.7,3.8L396.7,3.8"/>
			<polyline class="st5" points="355.8,27.3 355.7,27.3 355.8,27.3 355.8,27.3    "/>
		</g>
	</g>
</g>
<g id="Ebene_4">
	<g>
		<path class="st3" d="M84,142c-3.9,0-7-3.1-7-7V48c0-3.9,3.1-7,7-7h137c3.9,0,7,3.1,7,7v87c0,3.9-3.1,7-7,7H84z"/>
		<path class="st4" d="M221,42c3.3,0,6,2.7,6,6v87c0,3.3-2.7,6-6,6H84c-3.3,0-6-2.7-6-6V48c0-3.3,2.7-6,6-6H221 M221,40H84    c-4.4,0-8,3.6-8,8v87c0,4.4,3.6,8,8,8h137c4.4,0,8-3.6,8-8V48C229,43.6,225.4,40,221,40L221,40z"/>
	</g>
	<polygon class="st6" points="79,45 152,97 226,43 152,101  "/>
</g>
<g id="Ebene_2">
	<g id="Big">
		<g>
			<path d="M266.3,5.5l-82.6,34.2c0,0,1.5,53.9,20,84.6c21.3,35.3,62.6,51.7,62.6,51.7s41.3-16.3,62.6-51.7     c18.5-30.7,20-84.6,20-84.6L266.3,5.5z"/>
		</g>
		<path class="st7" d="M266.3,23.1L266.3,23.1L266.3,23.1L266.3,23.1L266.3,23.1l-71.6,29.7c0,0,1.3,46.7,17.3,73.3    c18.4,30.6,54.1,44.7,54.2,44.8v0l0,0l0,0v0c0.1-0.1,35.8-14.2,54.2-44.8c16-26.6,17.3-73.3,17.3-73.3L266.3,23.1z"/>
		<g>
			<path class="st8" d="M266.3,23.1l-71.6,29.7c0,0,1.3,46.7,17.3,73.3c18.5,30.6,54.2,44.8,54.2,44.8V23.1z"/>
			<path class="st7" d="M266.3,23.1l71.6,29.7c0,0-1.3,46.7-17.3,73.3c-18.5,30.6-54.2,44.8-54.2,44.8V23.1z"/>
		</g>
		<g>
			<polygon class="st9" points="266.3,95 324.9,64.6 266.3,40.3    "/>
			<polygon class="st3" points="266.3,95 266.3,40.3 207.7,64.6    "/>
			<path class="st3" d="M263.7,99.6l-57.3-29.8c-0.1,11.8,0.8,42.7,12,61.4c13.5,22.3,37.3,34.7,45.2,38.4V99.6z"/>
			<path class="st9" d="M269,99.6v70c7.9-3.7,31.8-16.1,45.3-38.4c11.3-18.7,12.1-49.6,12-61.4L269,99.6z"/>
		</g>
	</g>
</g>
</svg>